# xmcd CD database file
#
# Track frame offsets:
#	150
#	5005
#	9590
#	15067
#	19960
#	24982
#	29930
#	33855
#	55812
#	73880
#	93750
#	114190
#	135842
#	153917
#	168845
#	186497
#	207747
#	234090
#	253290
#	258192
#	263030
#	276010
#	299960
#
# Disc length: 4195 seconds
#
# Revision: 0
# Processed by: cddbd v1.4PL0 Copyright (c) Steve Scherf et al.
# Submitted via: CDex 1.50Beta7
#
DISCID=38106117
DTITLE=Paul Meader and Robin Nolan - The Gypsy Jazz Play Along CD - Volume 5
DYEAR=2002
DGENRE=Jazz
TTITLE0=Tune up track
TTITLE1=Rhythm intro in Bb major
TTITLE2=Rhythm intro in C major
TTITLE3=Rhythm intro in G major (slow)
TTITLE4=Rhythm intro in G major (fast)
TTITLE5=Rhythm intro 2 in G major (slow)
TTITLE6=Rhythm intro 2 in G major (fast)
TTITLE7=Djangos Tiger (slow)
TTITLE8=Djangos Tiger (fast)
TTITLE9=Tea for two
TTITLE10=Stompin At Decca
TTITLE11=After Youve Gone (slow)
TTITLE12=After Youve Gone (fast)
TTITLE13=Blues Clair
TTITLE14=The Sheik Of Araby
TTITLE15=Blue Drag
TTITLE16=Avalon
TTITLE17=Swing Guitars
TTITLE18=Rhythm intro in G minor
TTITLE19=Rhythm intro in D minor
TTITLE20=Swing 49
TTITLE21=Lulu Swing
TTITLE22=Shine
EXTD=YEAR: 2002
EXTT0=
EXTT1=
EXTT2=
EXTT3=
EXTT4=
EXTT5=
EXTT6=
EXTT7=
EXTT8=
EXTT9=
EXTT10=
EXTT11=
EXTT12=
EXTT13=
EXTT14=
EXTT15=
EXTT16=
EXTT17=
EXTT18=
EXTT19=
EXTT20=
EXTT21=
EXTT22=
PLAYORDER=
